<?xml version="1.0"?>
<svg xmlns="http://www.w3.org/2000/svg" viewBox="0 0 512 512" width="512px" height="512px"><g id="_11-global" data-name="11-global"><g id="linear_color-2" data-name="linear color"><path d="M31.945,314a10,10,0,0,0,9.226-13.851A196.8,196.8,0,0,1,26,224C26,114.822,114.822,26,224,26A197.4,197.4,0,0,1,329.563,56.456a10,10,0,0,0,10.678-16.912A218.086,218.086,0,0,0,22.712,307.849,10,10,0,0,0,31.945,314Z" fill="#FFFFFF"/><path d="M479,310H424.34a218.769,218.769,0,0,0,15.093-119.526,10,10,0,0,0-19.766,3.052A200.371,200.371,0,0,1,422,224a195.686,195.686,0,0,1-19.6,86H351.756A153.7,153.7,0,0,0,378,224c0-84.916-69.084-154-154-154S70,139.084,70,224c0,83.913,67.464,152.357,151,153.962v44a196.564,196.564,0,0,1-73.283-15.19A10,10,0,0,0,140,425.226a216.451,216.451,0,0,0,81,16.738V480a26.03,26.03,0,0,0,26,26H479a26.03,26.03,0,0,0,26-26V336A26.03,26.03,0,0,0,479,310Zm6,26v14H241V336a6.006,6.006,0,0,1,6-6H479A6.006,6.006,0,0,1,485,336Zm0,47H241V370H485ZM90,224a133.569,133.569,0,0,1,5.5-38h56.692a330.925,330.925,0,0,0,0,76H95.5A133.569,133.569,0,0,1,90,224Zm80,0a306.163,306.163,0,0,1,2.31-38H275.69A306.163,306.163,0,0,1,278,224a306.159,306.159,0,0,1-2.336,38H172.31A306.163,306.163,0,0,1,170,224ZM224,90c18.66,0,38.875,29.378,48.414,76H175.586C185.125,119.378,205.34,90,224,90ZM358,224a134.06,134.06,0,0,1-5.5,38H295.788A326.311,326.311,0,0,0,298,224a327.706,327.706,0,0,0-2.189-38H352.5A133.569,133.569,0,0,1,358,224Zm-85.62,58a212.144,212.144,0,0,1-7.628,28H247a26.03,26.03,0,0,0-26,26v21.741c-17.788-2.936-36.384-31.608-45.414-75.741Zm13.438,28a245.312,245.312,0,0,0,6.932-28h52.055a133.717,133.717,0,0,1-18.062,28Zm58.968-144h-52A218.161,218.161,0,0,0,278.4,118.115a128.85,128.85,0,0,0-11.7-21.139A134.716,134.716,0,0,1,344.786,166ZM181.3,96.976a128.85,128.85,0,0,0-11.7,21.139A218.161,218.161,0,0,0,155.218,166h-52A134.716,134.716,0,0,1,181.3,96.976ZM103.214,282h52a218.161,218.161,0,0,0,14.387,47.885,128.85,128.85,0,0,0,11.7,21.139A134.716,134.716,0,0,1,103.214,282ZM479,486H247a6.006,6.006,0,0,1-6-6V403H485v77A6.006,6.006,0,0,1,479,486Z" fill="#FFFFFF"/><path d="M345,421H264a10,10,0,0,0,0,20h81a10,10,0,0,0,0-20Z" fill="#FFFFFF"/><path d="M407,90h17a14.015,14.015,0,0,1,14,14v1a14.015,14.015,0,0,1-14,14H398.791a5.507,5.507,0,0,1-5.507-5.609l.019-1.038a10,10,0,1,0-20-.358l-.019,1.036A25.509,25.509,0,0,0,398.791,139H406v6a10,10,0,0,0,20,0v-6.064A34.039,34.039,0,0,0,458,105v-1a34.038,34.038,0,0,0-34-34H407a14,14,0,0,1,0-28h24.811a5.506,5.506,0,0,1,5.5,5.744,10,10,0,0,0,19.982.86A25.508,25.508,0,0,0,431.811,22H426V16a10,10,0,0,0-20,0v6.025A33.995,33.995,0,0,0,407,90Z" fill="#FFFFFF"/><path d="M73,405H56a14,14,0,0,1,0-28H80.811a5.506,5.506,0,0,1,5.5,5.744,10,10,0,0,0,19.982.86A25.508,25.508,0,0,0,80.811,357H75v-6a10,10,0,0,0-20,0v6.025A33.995,33.995,0,0,0,56,425H73a14.015,14.015,0,0,1,14,14v1a14.015,14.015,0,0,1-14,14H47.791a5.507,5.507,0,0,1-5.507-5.609l.019-1.038a10,10,0,1,0-20-.358l-.019,1.036A25.509,25.509,0,0,0,47.791,474H55v6a10,10,0,0,0,20,0v-6.064A34.039,34.039,0,0,0,107,440v-1A34.038,34.038,0,0,0,73,405Z" fill="#FFFFFF"/></g></g></svg>
